<svg version="1.1" id="Layer_1" xmlns="http://www.w3.org/2000/svg" xmlns:xlink="http://www.w3.org/1999/xlink" x="0px" y="0px"
	 width="100%" viewBox="0 0 736 992" enable-background="new 0 0 736 992" xml:space="preserve">
<path fill="#000000" opacity="1.000000" stroke="none" 
	d="
M737.000000,774.539368 
	C728.416504,768.143738 719.731262,761.409546 711.291504,754.380615 
	C706.941650,750.757996 701.649231,749.998352 696.562744,748.623413 
	C680.509888,744.283936 664.495483,739.737183 648.283325,736.081848 
	C640.922852,734.422241 633.139771,734.297791 625.534546,734.137756 
	C612.211426,733.857300 598.873840,733.898071 585.549561,734.166443 
	C576.358765,734.351562 567.278076,734.175476 558.622925,730.712830 
	C554.188171,728.938660 549.602600,728.857666 544.983521,728.870422 
	C537.668274,728.890686 532.544495,725.808716 529.814270,718.835754 
	C527.648804,713.305420 524.748291,708.027161 526.592590,701.688354 
	C527.487549,698.612366 526.628784,695.457458 525.779480,691.876099 
	C513.179626,692.928284 500.426636,690.545715 487.733826,693.093506 
	C484.866943,693.669006 482.301392,691.743835 479.651642,690.912964 
	C469.860657,687.842407 460.478821,683.537659 450.418549,681.231812 
	C448.857635,680.874084 447.408691,679.868347 446.013611,678.993774 
	C444.734070,678.191772 443.491608,676.977722 441.954437,677.845093 
	C440.152679,678.861938 440.619232,680.792480 440.923676,682.372925 
	C441.743927,686.630676 442.478516,690.880249 442.154755,695.240479 
	C442.068542,696.401550 442.100494,697.589722 441.852631,698.715820 
	C441.517944,700.236267 440.760925,701.714294 438.999237,701.724976 
	C437.282532,701.735352 436.195435,700.229736 436.002655,698.838745 
	C435.664246,696.396851 435.375732,693.736755 435.997162,691.417480 
	C437.260559,686.702271 435.779724,681.719910 437.742554,677.131592 
	C438.312958,675.798157 437.402802,674.959167 436.402557,674.245667 
	C433.438568,672.131042 430.697998,669.566345 427.475555,667.977966 
	C419.481354,664.037842 414.519012,656.854004 408.289215,651.018555 
	C403.394379,646.433655 399.652710,640.652893 393.897736,636.521606 
	C393.136353,637.566284 392.662384,638.207031 392.198364,638.854919 
	C389.330414,642.858887 386.738770,642.641418 384.679382,638.012634 
	C382.925415,634.070312 381.323181,630.042480 379.957581,625.951111 
	C378.930695,622.874695 377.603088,620.636047 373.994019,620.156738 
	C370.016571,619.628601 366.845337,616.616699 364.472839,614.148438 
	C359.237183,608.701416 352.717224,604.883118 347.824921,598.808655 
	C342.547638,592.256226 336.382660,586.126953 329.979218,580.374512 
	C319.955017,571.369446 308.873169,563.175232 303.767487,549.808350 
	C302.103790,545.452698 298.733612,542.027100 295.583649,538.590820 
	C292.031647,534.715881 290.527344,530.263306 290.649414,524.911377 
	C290.765656,519.814880 291.613403,514.600708 289.678040,509.574493 
	C288.779907,507.242035 287.841217,505.118591 285.996735,503.237274 
	C281.297546,498.444244 280.238556,492.035797 279.882172,485.777222 
	C279.399811,477.306915 279.378113,468.766876 279.878601,460.299286 
	C280.220093,454.520844 283.599426,449.213196 283.114960,443.093903 
	C282.984222,441.442780 284.955322,439.909943 287.060852,439.958435 
	C289.354675,440.011292 291.085663,441.425201 291.113617,443.592682 
	C291.178833,448.652618 292.625366,453.910187 289.476593,458.662933 
	C287.777832,461.227020 288.512573,464.173218 288.523865,466.963379 
	C288.556702,475.072266 287.544830,483.209900 290.203278,491.218353 
	C291.014893,493.663300 291.669556,496.025604 293.572479,497.675232 
	C297.987305,501.502625 298.946442,506.622772 299.224457,511.991852 
	C299.396545,515.315002 299.428070,518.666443 299.206024,521.984009 
	C298.905609,526.471863 300.594666,530.327942 303.379120,533.417236 
	C307.411041,537.890442 311.202606,542.467407 313.679291,547.959473 
	C319.324829,560.478516 330.154205,568.574158 339.271973,578.108032 
	C345.831116,584.966492 352.298706,592.048340 359.673126,597.948120 
	C365.529785,602.633667 370.617920,608.412109 377.496094,611.808350 
	C378.700470,612.403076 379.877014,612.963440 381.362854,612.642456 
	C382.461609,600.547913 384.669464,588.675049 385.825317,576.643738 
	C386.530426,569.304382 388.161591,561.936035 390.629395,554.872070 
	C390.973328,553.887512 391.148346,552.959900 390.833221,551.960327 
	C387.980011,542.911438 391.573792,534.806885 393.960541,526.297119 
	C396.863556,515.946716 397.887329,505.250458 393.064972,494.884338 
	C391.444641,491.401337 390.609497,487.664551 390.628387,483.758209 
	C390.668610,475.427917 390.418030,467.089874 390.703217,458.769287 
	C390.894745,453.180328 389.831360,447.871552 388.486359,442.554047 
	C388.041962,440.797058 387.056244,439.095917 386.978851,437.340088 
	C386.417969,424.614807 385.868927,428.362122 375.682739,426.083862 
	C371.644012,425.180511 367.925842,423.035767 363.097260,422.809875 
	C362.295715,422.312134 362.088104,422.060303 361.895233,421.796295 
	C363.101654,419.813385 364.774109,420.082764 366.693024,420.586609 
	C369.547729,421.336029 372.309143,422.652313 375.352661,422.432068 
	C372.768341,417.309845 365.054718,416.133911 364.701752,408.986206 
	C368.683838,407.998077 371.248535,408.669983 373.590149,411.688446 
	C375.939087,414.716431 379.829315,413.704651 383.428619,414.314667 
	C383.315582,409.224518 380.033783,405.171814 381.277985,399.027313 
	C374.324036,405.086334 369.414062,402.413208 365.050262,397.099762 
	C362.563263,394.071564 365.483917,392.419159 367.164032,390.035461 
	C363.464844,388.794006 364.372406,383.801056 359.704132,382.827057 
	C353.978088,381.632324 356.884430,389.571991 352.309753,388.811707 
	C350.080963,387.955475 353.341492,385.539429 350.896698,384.604706 
	C348.099304,384.518158 350.314087,388.425812 347.401947,388.840973 
	C344.960602,388.331329 346.215546,385.857666 345.775574,384.182281 
	C344.552216,382.626312 342.064575,384.390045 341.058594,382.558746 
	C351.971558,374.373962 361.805481,378.853027 371.637177,385.810822 
	C370.454865,379.957520 372.800446,375.910217 376.508759,371.958466 
	C372.710754,371.844666 370.061920,373.291412 367.230774,374.024750 
	C365.234711,374.541779 362.566650,374.967316 361.801544,372.100464 
	C361.099060,369.468231 363.434692,368.742249 365.306427,368.110687 
	C367.506348,367.368347 369.821960,366.970428 372.026855,366.240356 
	C373.363831,365.797668 375.157684,365.516022 374.892242,363.421234 
	C374.591156,361.044983 372.781342,362.178436 371.454346,361.890381 
	C368.943085,361.345215 365.956482,364.068176 364.046906,360.346497 
	C364.762817,359.637329 365.313721,359.384064 365.864624,359.130798 
	C369.917694,358.839264 373.970764,358.547729 378.444275,358.225952 
	C380.223633,355.566223 381.595795,351.849609 384.636963,349.385193 
	C386.018036,348.266052 387.776672,346.851593 389.514313,348.549164 
	C391.252441,350.247192 390.687164,352.134674 389.111267,353.830566 
	C386.874725,356.237457 384.902222,358.815948 384.159180,362.600922 
	C395.840668,358.786316 406.813049,354.040802 419.182281,352.471710 
	C418.803284,356.619507 422.126465,356.422272 424.539825,357.622040 
	C435.463593,363.052460 446.271729,368.714966 457.146912,374.243866 
	C459.906189,375.646698 462.758972,376.865601 465.609985,378.188141 
	C467.525940,376.287018 466.434174,373.972412 466.801147,371.947266 
	C467.098175,370.308228 467.669830,368.966400 469.551239,369.046356 
	C471.202972,369.116547 471.793365,370.479797 471.831512,371.858368 
	C471.932526,375.510529 471.865753,379.167358 471.865753,383.067444 
	C474.212097,383.230591 476.026001,381.052643 478.092163,383.152130 
	C476.868866,387.463165 473.778259,391.287933 473.860840,396.760620 
	C470.913147,395.064301 472.037384,392.916351 471.397644,391.427765 
	C470.949249,390.384308 470.696503,389.016235 469.244141,389.000000 
	C467.740295,388.983185 466.889404,389.930542 466.434967,391.375946 
	C464.946014,396.111725 465.960999,398.184692 470.689758,399.736023 
	C472.149628,400.214935 472.908508,401.256744 472.958069,402.686493 
	C473.003540,403.997986 472.931244,405.363831 472.608826,406.628754 
	C471.440796,411.211731 469.397644,415.353302 471.813385,420.578247 
	C473.379120,423.964691 471.818787,428.330505 469.174561,431.755157 
	C465.607422,436.375183 463.202271,436.629150 459.231293,432.224335 
	C456.612457,432.445557 453.983521,434.296692 451.118652,432.764282 
	C450.680939,432.530121 449.720795,432.806702 449.251038,433.169342 
	C443.530914,437.584900 437.063934,440.987671 432.743805,447.224640 
	C427.799957,454.362122 425.604187,462.894531 420.509247,469.914642 
	C418.998901,471.995667 417.550385,473.637177 414.885956,474.425110 
	C409.501495,476.017426 405.714691,483.815582 407.234650,489.214478 
	C409.653473,497.806274 408.545746,506.651978 406.345734,514.761841 
	C402.039795,530.634460 400.487061,546.558533 401.251556,562.853210 
	C401.350037,564.952820 401.714752,566.803345 404.177338,568.135925 
	C405.934235,562.976624 407.391449,557.780640 409.451385,552.835815 
	C413.977966,541.970093 417.835083,530.807129 423.697632,520.517883 
	C426.823761,515.031189 429.038788,508.907654 432.795746,503.923950 
	C439.348114,495.231995 446.833588,487.248047 453.810364,478.869507 
	C457.511536,474.424713 461.023193,469.817627 464.506317,465.197815 
	C466.182129,462.975006 467.817841,460.448090 470.900879,462.513672 
	C473.640259,464.349060 473.656586,467.241028 472.379913,470.124542 
	C470.329102,474.756500 466.803009,478.473267 463.594177,482.123322 
	C452.003906,495.307434 440.422211,508.332336 432.430664,524.247742 
	C426.835968,535.389648 422.749359,547.097778 417.760834,558.446655 
	C415.006409,564.712891 413.670898,571.348877 411.182343,577.667358 
	C408.316925,584.942688 410.754059,592.278870 412.771881,599.503479 
	C416.472015,612.751587 422.308136,625.228577 426.561035,638.281799 
	C427.692291,641.753906 430.603943,644.659729 432.765015,647.779236 
	C435.693420,652.006287 438.845184,656.067444 440.554047,661.039978 
	C442.831268,667.666260 448.638306,670.763062 454.446899,673.012512 
	C461.158356,675.611755 468.438812,676.469788 475.108307,679.626404 
	C483.903931,683.789307 493.590363,682.318970 502.944244,682.629150 
	C509.527893,682.847473 516.124573,682.671448 523.051208,681.871033 
	C516.412720,676.318726 507.858185,673.002991 504.329193,664.810791 
	C500.922852,656.903259 498.300629,648.625427 500.287537,638.973450 
	C496.612823,640.460999 493.839050,640.477234 491.057007,640.300903 
	C489.618164,640.209717 488.349701,639.661377 488.151154,638.095886 
	C487.929260,636.346130 489.256897,635.633667 490.665894,635.740417 
	C494.229187,636.010376 496.640381,631.912537 500.530121,633.331116 
	C501.484467,633.679138 502.571014,632.615906 502.380981,631.509827 
	C502.032654,629.481934 501.164001,627.757446 498.709534,627.416809 
	C495.642944,626.991211 492.741089,627.955383 489.818207,628.435913 
	C479.699127,630.099304 469.506561,629.500366 459.424988,628.924683 
	C453.411743,628.581299 449.288086,623.070618 444.403625,619.747253 
	C443.602753,619.202393 443.190460,617.940674 442.359497,617.608643 
	C435.243469,614.765320 435.095703,608.830627 435.711273,602.671265 
	C436.730957,592.468994 436.763184,582.013489 443.014648,573.059265 
	C443.934235,571.742065 444.336761,570.001038 444.734589,568.395569 
	C445.567566,565.034180 447.905487,563.271790 451.039459,562.779724 
	C463.313568,560.852844 475.315674,561.807617 487.489349,564.733887 
	C495.740448,566.717346 504.616364,566.707642 512.580322,562.055176 
	C515.781311,560.185181 515.705994,556.585571 516.353271,553.782043 
	C517.830078,547.385925 515.541687,540.919678 515.500854,534.437317 
	C515.489136,532.581299 513.721191,532.338745 512.188232,532.048035 
	C508.212891,531.294067 507.948547,528.785889 509.501495,525.733032 
	C511.890778,521.035950 525.044861,518.715759 528.823364,522.366760 
	C531.235291,524.697327 530.939026,527.459106 528.301147,529.172546 
	C525.252563,531.152771 524.959045,533.889587 524.914673,536.932312 
	C524.807678,544.258301 524.867798,551.590820 524.551208,558.907410 
	C524.435486,561.581665 525.904541,562.256592 527.783020,562.289612 
	C536.440063,562.441589 545.101501,562.500122 553.758789,562.391968 
	C556.594666,562.356506 557.609253,560.409485 557.668518,557.633362 
	C557.792969,551.801147 557.503113,546.016907 556.667480,540.240601 
	C556.411926,538.473816 555.527466,537.770325 553.999573,537.099609 
	C551.854736,536.158081 549.631958,534.792297 550.359619,531.917847 
	C551.121338,528.908997 553.668091,528.588989 556.335999,528.622253 
	C559.973633,528.667664 563.651550,528.187012 566.652344,531.131348 
	C567.514587,531.977356 568.883301,532.636353 570.333984,532.094604 
	C570.563660,531.849304 570.992310,531.602356 570.984985,531.369141 
	C570.628235,520.017822 578.996826,512.641235 583.728882,503.645172 
	C587.637878,496.214081 587.425720,494.216431 581.405090,488.217865 
	C574.000671,480.840668 566.068542,473.578522 560.167542,465.230133 
	C552.994080,455.081512 548.749634,442.853455 550.974121,429.666290 
	C551.398926,427.147980 553.081482,425.441711 555.858032,425.600067 
	C558.810486,425.768433 559.780396,427.921326 559.829956,430.451599 
	C559.950806,436.614777 560.247131,442.569611 562.728455,448.515564 
	C566.416138,457.352142 571.492432,464.984680 578.419983,471.505096 
	C583.613525,476.393433 587.781067,482.265503 593.592896,486.607056 
	C599.224792,490.814148 595.156982,496.507141 594.877380,501.470276 
	C594.687683,504.837799 594.766663,514.556152 595.494385,517.554565 
	C598.606323,530.377319 604.559082,542.354431 606.578491,555.513977 
	C607.096436,558.889343 608.750732,562.084473 609.818970,565.383057 
	C610.701599,568.108398 613.081482,565.961853 614.662903,566.984375 
	C615.989014,568.945801 615.031677,571.413269 615.643738,573.613220 
	C612.309387,574.252441 612.312195,578.203735 609.818787,579.555481 
	C607.204163,580.972900 605.257874,579.599792 604.117432,577.250183 
	C599.682922,568.113281 597.371155,558.345825 595.079590,548.487122 
	C592.893127,539.080444 589.431091,529.970398 586.478821,520.567200 
	C581.779663,521.761353 579.875732,524.248535 580.355408,528.330627 
	C580.919189,533.127747 579.576538,537.204224 576.156921,540.580017 
	C574.853760,541.866455 573.456665,543.380737 571.504761,543.206787 
	C565.921082,542.709412 565.171997,546.059265 565.303040,550.418640 
	C565.412292,554.054565 565.325500,557.696411 565.325500,561.105835 
	C567.490784,562.652527 569.604187,562.591553 571.489258,562.519348 
	C584.016663,562.039429 591.144958,570.613037 596.455627,579.536865 
	C599.412476,584.505676 601.491699,591.854431 597.744812,598.640686 
	C596.030579,601.745483 595.514404,605.493103 594.285339,608.887817 
	C590.858826,618.351624 584.342224,620.412720 575.895569,619.634705 
	C570.740173,619.159851 565.970337,620.195007 561.136719,621.045837 
	C556.894653,621.792480 556.026123,625.708435 556.272461,629.269409 
	C556.538147,633.110901 559.803467,632.005676 562.122864,631.687866 
	C568.400208,630.827576 574.573975,630.532898 580.847717,632.125000 
	C583.036987,632.680603 584.960999,633.035339 584.933289,635.411865 
	C584.898010,638.439148 582.189941,638.921631 580.178650,638.249878 
	C574.133850,636.231384 568.038452,637.615112 561.980591,637.313293 
	C557.774231,637.103638 555.671814,638.353516 556.045776,642.883606 
	C556.375854,646.882690 556.219849,650.799866 553.504333,654.256226 
	C552.679443,655.306213 552.226135,657.237854 552.560242,658.515259 
	C555.240356,668.762268 549.832581,675.423950 542.827209,681.748413 
	C547.829773,683.861633 552.352905,681.536987 556.938232,679.810120 
	C557.237061,679.697510 557.450439,679.288513 557.742371,679.236938 
	C572.557434,676.618958 574.989868,661.382080 584.235840,653.059021 
	C587.670776,649.966919 588.312439,644.928467 589.430847,640.339600 
	C591.506470,631.824097 596.485901,624.571594 601.513428,617.613586 
	C606.207397,611.117126 607.922852,603.443665 611.395081,596.488770 
	C617.014587,585.233032 617.854370,572.560669 621.091003,560.598511 
	C625.247070,545.238525 623.721924,529.954895 622.528992,514.616211 
	C622.086426,508.925201 617.948669,503.945801 618.234070,497.915039 
	C618.563171,490.961243 614.855225,484.969147 613.535339,478.387543 
	C612.106262,471.261475 612.807434,464.142700 612.706360,457.027649 
	C612.618713,450.856750 609.943909,445.979401 606.185852,441.455933 
	C605.977173,441.204712 605.677673,440.816559 605.441589,440.831238 
	C597.994812,441.295593 592.230225,435.367737 584.932251,435.409027 
	C578.719971,435.444183 573.609802,433.673157 570.399170,427.871826 
	C568.474609,424.394257 566.157776,421.136078 564.136353,417.709045 
	C562.672729,415.227692 563.140991,413.006866 566.342285,410.319183 
	C568.879456,421.018250 578.246704,422.816040 585.982361,426.855408 
	C590.029663,428.968811 593.812988,431.587921 599.211670,431.908600 
	C597.500977,423.576324 598.239441,415.306671 593.768616,408.198822 
	C585.969727,410.268463 577.841431,408.163177 570.554260,411.756500 
	C569.381470,412.334869 568.289917,411.641174 567.580261,410.556091 
	C566.840332,409.424835 567.102600,408.398743 567.834167,407.331848 
	C572.117676,401.084839 572.093750,401.089050 566.845825,395.740387 
	C566.081177,394.961029 564.961182,394.203247 565.861816,392.491852 
	C568.390930,392.156799 569.243530,395.445190 572.075928,395.497681 
	C570.610413,388.696594 572.376221,382.846436 578.022522,378.657471 
	C576.641968,376.626129 574.982239,377.363678 573.615112,377.164368 
	C571.785522,376.897583 569.510071,376.998718 569.300049,374.681091 
	C569.088135,372.342377 571.063721,371.440674 573.125916,370.803192 
	C575.590759,370.041229 577.971863,369.008545 580.384583,367.732361 
	C569.940125,368.197144 562.407593,362.754608 554.206360,357.296692 
	C546.153931,351.937836 546.298462,345.000153 546.141479,337.447418 
	C546.090820,335.013092 547.223145,332.530426 550.178284,332.725311 
	C553.054932,332.915009 555.156372,334.589417 555.093994,337.890961 
	C555.017273,341.948029 556.273010,345.374847 559.981262,348.317688 
	C560.721436,342.254303 565.696228,337.825531 564.411682,331.315186 
	C564.031555,329.388947 566.180420,327.634674 568.510742,327.981781 
	C571.020508,328.355591 570.140808,330.429810 570.462463,332.206146 
	C571.590515,338.435730 568.560852,344.227234 569.133057,350.413513 
	C569.472351,354.081268 570.920898,355.487152 574.257446,355.639038 
	C574.590393,355.654175 574.938843,355.732819 575.254395,355.664093 
	C583.828247,353.796478 592.533752,352.758087 601.190063,351.401642 
	C603.874146,350.981079 605.142578,347.427246 608.313538,347.193298 
	C613.400085,346.818024 618.415161,343.908234 623.597534,347.489563 
	C624.762268,348.294495 627.134888,347.308075 628.955017,347.220154 
	C630.889709,347.126740 633.658325,344.725891 633.948364,349.288208 
	C634.026062,350.509979 635.985840,349.496033 637.049377,349.533875 
	C641.212097,349.681915 645.343323,349.449890 648.325439,353.361450 
	C649.399475,354.770294 650.685486,355.850891 649.585205,357.654388 
	C648.538330,359.370605 647.265808,361.219147 644.918579,360.777222 
	C628.143799,357.619385 611.906433,363.429871 595.340820,363.691589 
	C594.260803,363.708618 593.009033,363.985718 591.953735,365.920624 
	C598.428223,366.793976 602.793762,372.165497 610.462524,370.850647 
	C616.846863,369.756042 624.007141,371.118683 630.456238,374.656738 
	C628.682312,377.373962 626.491699,375.866180 624.484131,375.383148 
	C622.392212,374.879791 620.355347,374.039215 617.771118,374.543610 
	C618.875854,376.381989 620.569275,377.385010 622.265503,378.030334 
	C630.367798,381.113068 637.241394,387.041656 646.151245,388.263397 
	C648.247864,388.550873 650.961670,388.852142 650.053772,392.048737 
	C649.235352,394.930420 646.647705,394.059235 644.567139,393.872559 
	C640.891052,393.542755 639.060730,395.928284 640.545654,399.236450 
	C641.136719,400.553223 642.247864,400.929596 643.655457,401.308441 
	C649.072632,402.766357 649.985779,404.713287 647.905884,409.890625 
	C647.380432,411.198486 646.936340,412.340790 647.963684,413.618927 
	C651.354309,413.546143 650.987366,409.500763 653.396423,408.401245 
	C655.154724,412.517548 654.653503,414.666565 649.492493,425.261658 
	C655.363831,423.982513 656.379150,423.191254 659.366516,417.581146 
	C661.253174,417.053497 660.870178,419.569733 662.191772,419.740417 
	C665.269775,418.565369 665.554321,414.804596 668.248352,413.304169 
	C670.045166,416.633881 663.510498,427.758392 658.489136,430.116638 
	C657.125427,428.990631 659.169800,428.092743 658.567566,426.709991 
	C654.815002,428.320190 651.055237,429.933472 647.094971,431.632812 
	C650.088806,433.732788 653.023376,431.655365 656.019226,431.726044 
	C654.422363,434.159546 654.422363,434.159546 643.363953,435.324982 
	C644.006531,441.400513 646.065796,447.189728 647.006165,453.202301 
	C648.642944,463.667358 651.212341,474.018677 650.231567,484.709900 
	C648.989685,498.247742 652.796997,511.486755 652.365051,524.985046 
	C652.225891,529.331726 651.509705,533.114990 648.667175,536.541809 
	C646.269653,539.432068 645.330261,542.914734 645.345337,546.771240 
	C645.374268,554.175842 645.998230,561.625000 643.093140,570.152161 
	C647.933350,567.000305 650.510376,564.225647 651.569458,560.135132 
	C653.756348,551.688660 657.501709,544.064331 663.642273,537.740845 
	C664.577881,536.777344 665.627808,535.790100 665.651978,534.385010 
	C665.798523,525.860718 671.440491,520.169128 676.068848,513.950012 
	C678.335693,510.904022 678.639282,507.073639 678.839355,503.690186 
	C679.084961,499.535889 680.106201,496.195282 683.078552,493.491699 
	C685.554443,491.239777 687.301758,488.382385 687.424866,485.277618 
	C688.121033,467.722504 690.851685,450.097534 686.134216,432.663849 
	C684.030151,424.887939 678.913879,418.528961 676.089966,411.072266 
	C675.368774,409.167908 674.694519,407.420990 674.698853,405.403351 
	C674.718750,396.238617 674.725464,387.073853 674.734436,377.909119 
	C674.736084,376.222748 674.939148,374.575897 675.774841,373.076904 
	C678.861633,367.539734 679.085144,361.333008 679.487061,355.296631 
	C680.039978,346.991882 675.063538,340.446136 671.672729,332.826508 
	C672.211243,331.214966 674.500183,332.936951 675.821472,331.787201 
	C678.221741,324.849335 673.932373,318.785278 672.905212,312.258606 
	C672.778870,311.455841 672.011780,310.688019 672.056091,309.934235 
	C672.658264,299.682922 666.652832,292.350006 660.805908,285.130676 
	C656.974121,280.399414 655.447083,274.992462 655.857239,269.413879 
	C656.836792,256.089996 651.700989,244.126129 648.713501,231.641068 
	C645.152649,216.759628 637.113525,203.864746 630.014526,190.801361 
	C623.538757,178.885056 614.544983,168.255280 602.765015,160.232361 
	C591.302002,152.425247 581.266174,142.502792 569.715881,134.849060 
	C558.222595,127.233101 549.263794,116.337738 537.266235,109.832298 
	C528.927917,105.310974 521.479492,98.897629 511.591919,96.968903 
	C506.549164,95.985237 501.898102,93.114288 496.596283,92.043594 
	C487.925201,90.292458 479.380219,87.796509 470.908142,85.202858 
	C445.187103,77.328590 418.747772,77.369881 392.360168,78.634460 
	C379.536316,79.249023 366.748352,79.083046 353.948425,79.239700 
	C348.552338,79.305748 342.673218,80.014618 338.488770,82.000320 
	C331.699951,85.221901 324.370636,86.255966 317.619507,89.333214 
	C309.923676,92.841049 303.234711,97.948456 295.756256,101.606674 
	C290.080963,104.382812 285.075439,108.328018 278.488678,109.766190 
	C270.975891,111.406570 263.808319,114.810623 256.853790,118.332191 
	C251.240875,121.174400 245.788025,124.332382 239.476318,125.577888 
	C236.879822,126.090271 234.284882,127.310043 232.767303,129.569336 
	C229.073593,135.068329 225.074921,140.372086 222.410446,146.539902 
	C219.787903,152.610703 215.411163,157.548584 210.045609,161.195114 
	C204.905518,164.688400 201.891342,168.252747 201.511292,175.107483 
	C201.142120,181.766006 199.226639,188.420914 198.683197,195.241608 
	C198.371399,199.155106 195.367752,202.361969 192.983383,205.613205 
	C186.607941,214.306427 183.425430,223.872437 182.414078,234.884247 
	C181.722870,242.410187 182.153564,250.257797 179.217224,257.835419 
	C176.917908,263.769073 174.733307,269.702789 171.877106,275.402435 
	C171.320724,276.512726 171.387238,277.993866 171.372284,279.306305 
	C171.317230,284.138794 170.949799,289.012787 171.436295,293.796326 
	C172.275574,302.048462 168.890457,309.772736 168.927948,317.912994 
	C168.936661,319.807892 168.333145,321.819183 168.265335,323.817627 
	C168.034821,330.613831 168.707184,337.414886 167.157333,344.204254 
	C166.402939,347.509125 166.827576,351.075592 167.796814,354.568481 
	C169.524460,360.794464 170.905960,367.105011 170.418594,373.710663 
	C169.828705,381.705872 175.123566,387.671265 178.089493,394.431000 
	C179.214554,396.995209 181.619141,399.205719 181.327515,402.137695 
	C180.807266,407.368042 182.588150,411.823608 184.564957,416.496735 
	C188.226440,425.152313 189.711655,434.544556 193.015427,443.373199 
	C193.952866,445.878357 195.300308,447.836517 196.970383,449.505402 
	C203.437729,455.967834 204.300323,466.431396 212.757172,471.409973 
	C215.696198,481.492432 223.528427,489.545868 224.749283,500.348297 
	C224.915985,501.823456 224.924789,503.498413 225.643265,504.700317 
	C231.198578,513.993408 230.272476,524.233032 230.258728,534.362671 
	C230.231827,554.195007 230.715759,574.043457 230.036316,593.852539 
	C229.727234,602.863403 226.653809,611.566162 221.805679,619.523376 
	C218.475586,624.989014 217.329575,631.704895 217.422424,637.677429 
	C217.620407,650.411072 214.096863,661.303772 206.710968,671.470154 
	C200.353104,680.221375 196.525284,690.456665 191.258377,699.858215 
	C188.263138,705.204773 183.230148,709.016052 178.970673,713.153870 
	C174.812317,717.193420 171.187927,722.860107 164.253799,723.030579 
	C164.890549,725.432861 166.270874,724.810608 167.290970,724.891113 
	C168.615646,724.995728 169.962921,724.835144 171.283859,724.961975 
	C174.312256,725.252502 177.623459,726.735352 177.648697,729.525696 
	C177.678574,732.826233 174.301178,733.649780 171.014175,734.059387 
	C160.905411,735.318909 150.723114,735.278992 140.617569,735.303589 
	C125.949371,735.339294 111.373482,736.326721 96.778831,737.373108 
	C87.171661,738.061890 77.371376,737.832336 68.010178,739.742310 
	C55.349663,742.325317 43.746815,748.035461 35.002110,757.994934 
	C28.860495,764.989746 22.279997,771.647034 17.048824,779.416992 
	C15.908257,781.111084 14.605480,782.609619 12.345505,782.741943 
	C10.519141,782.848877 8.478995,783.235901 7.385685,781.340027 
	C6.420108,779.665710 7.526280,778.190979 8.498038,776.783508 
	C16.192949,765.638306 24.500589,754.545044 34.856133,746.235962 
	C45.671795,737.557617 58.420105,731.167847 73.432312,730.588257 
	C93.012718,729.832336 112.537895,727.693237 132.096252,726.279785 
	C136.203781,725.982910 140.423813,725.778748 144.462418,726.389160 
	C148.804657,727.045410 151.483109,725.589172 154.248398,722.407471 
	C157.677658,718.461792 160.988174,713.999573 166.835953,713.176270 
	C167.274597,713.114563 167.716812,712.687866 168.050812,712.331116 
	C173.672028,706.325928 179.997208,700.957031 184.443924,693.885742 
	C185.372696,692.408813 186.114746,691.137451 185.753052,689.325378 
	C185.325775,687.184753 186.562729,685.680847 187.724060,683.952271 
	C191.636658,678.128601 196.279282,672.667297 197.883316,665.548950 
	C198.021790,664.934509 198.348679,664.204773 198.826523,663.848145 
	C207.181061,657.613159 207.378632,648.489197 208.040588,639.279907 
	C208.701859,630.080383 209.924652,621.053833 215.488083,612.936340 
	C219.942001,606.437805 221.320023,598.320923 221.481079,590.607117 
	C221.943604,568.451416 221.644699,546.279480 221.603683,524.114014 
	C221.600647,522.467896 221.504105,520.754272 221.050247,519.188110 
	C218.559875,510.594543 216.629410,501.746338 213.153244,493.560272 
	C210.419342,487.122223 206.886047,480.747833 202.828659,475.054413 
	C197.606583,467.726715 193.742203,459.478455 188.295837,452.558960 
	C183.086136,445.940063 181.210907,438.149200 179.928268,431.057068 
	C178.392715,422.566559 172.787750,415.553528 173.087250,406.455902 
	C173.280624,400.582855 168.566391,395.550446 165.596146,390.373962 
	C163.047668,385.932556 161.397278,381.237427 161.848816,376.118103 
	C162.358215,370.342743 160.592407,364.946625 159.714096,359.392548 
	C157.325104,344.285461 160.028931,329.255524 160.649216,314.203613 
	C161.159561,301.819092 163.821823,289.553894 162.797180,277.065887 
	C162.533081,273.847107 163.384262,270.967865 164.977707,268.035339 
	C169.655823,259.425873 171.858444,250.257217 173.039825,240.350937 
	C174.462982,228.417267 174.890152,215.796692 182.211517,205.231583 
	C183.061234,204.005417 183.894608,202.766083 184.789963,201.573685 
	C188.440887,196.711533 191.095856,191.727570 190.773926,185.169342 
	C190.458374,178.741043 193.014435,172.504776 193.463120,165.994873 
	C193.724319,162.204956 197.281158,159.392105 200.302994,157.062836 
	C206.906219,151.972977 212.608871,146.449753 216.434326,138.681046 
	C218.221802,135.051010 220.398636,131.241776 222.900681,127.805687 
	C228.030548,120.760803 235.020706,116.885132 243.295227,114.665176 
	C251.979126,112.335388 259.159485,106.566200 267.694794,103.617035 
	C271.932281,102.152878 276.635803,101.817017 280.408234,99.596077 
	C285.775085,96.436462 291.772400,94.510460 296.867523,90.956146 
	C307.130096,83.797066 317.803864,77.773476 330.586182,76.413910 
	C332.232727,76.238777 333.752045,74.729263 335.299713,73.787590 
	C339.869904,71.006859 344.864594,70.759796 350.087555,70.634567 
	C369.383209,70.171921 388.645477,68.366493 407.963745,68.852905 
	C419.094666,69.133179 430.355133,69.024261 441.299622,70.737030 
	C454.651886,72.826622 467.786041,76.440567 480.908051,79.809937 
	C486.543793,81.257034 492.049469,83.069427 497.876038,83.786148 
	C502.521088,84.357521 506.950165,85.804596 510.823792,88.682335 
	C512.126587,89.650200 513.713501,90.328094 515.267334,90.851372 
	C531.642456,96.366104 545.982788,105.161636 558.827087,116.727585 
	C563.678223,121.095978 568.236938,126.030823 574.785828,128.399597 
	C578.384399,129.701218 579.318237,134.259109 582.711487,136.457321 
	C590.391235,141.432480 597.463623,147.352570 605.187256,152.250961 
	C617.163696,159.846542 626.749207,170.126617 633.839539,181.814758 
	C644.053589,198.651917 654.015930,215.955063 658.099365,235.713562 
	C658.536133,237.827057 658.884583,240.015442 659.719116,241.980057 
	C662.849670,249.350693 664.003784,257.003235 663.267517,264.927948 
	C662.576050,272.371124 665.194031,278.721863 669.683838,284.340546 
	C675.229858,291.280975 679.021423,298.722107 679.246704,307.888733 
	C679.367981,312.823975 682.381653,317.213013 682.592590,322.394440 
	C682.769531,326.740448 683.490051,330.931854 681.764526,335.132263 
	C680.862549,337.328003 681.811340,339.670929 682.898132,341.327240 
	C687.458191,348.276794 687.477051,355.928589 684.787781,362.949371 
	C680.537476,374.045593 682.757996,385.613434 680.946777,396.857391 
	C680.203247,401.472900 681.799377,406.772064 685.378601,411.183655 
	C696.558350,424.963348 698.353149,441.427094 697.181152,458.337769 
	C696.526917,467.777649 697.039612,477.289459 695.434204,486.664764 
	C695.266479,487.643951 695.403442,488.905548 694.841919,489.552826 
	C685.313232,500.535583 686.445190,516.631714 676.624939,527.471191 
	C675.765198,528.420227 674.915161,529.831177 674.912964,531.029114 
	C674.900452,537.856445 670.431702,542.144897 666.411133,546.742737 
	C662.852051,550.812744 660.240356,555.371887 659.067078,560.739563 
	C658.304260,564.229248 656.446228,567.028870 653.613098,569.423767 
	C647.041199,574.979126 643.311951,581.717712 642.288696,590.777771 
	C641.255554,599.925659 639.288879,608.930969 638.903931,618.255981 
	C638.666260,624.013245 633.828186,628.580505 631.207764,633.757629 
	C628.721497,638.669861 626.668091,643.756714 624.281189,648.699158 
	C623.458801,650.402161 623.268005,652.147095 623.525452,654.041687 
	C623.933228,657.043396 622.884888,659.651428 619.669983,659.918640 
	C616.119446,660.213867 616.259216,657.119446 615.922668,654.629089 
	C615.478577,651.343628 617.155334,647.698242 614.277710,644.426636 
	C610.815979,647.010071 608.786804,650.430542 607.204407,654.008240 
	C603.716187,661.895020 597.958252,666.966370 590.082031,670.502991 
	C582.669678,673.831360 575.897278,678.555420 568.672913,682.340027 
	C560.772705,686.478516 551.600220,687.819763 544.276062,693.318970 
	C542.283203,694.815308 540.564453,694.003845 539.130737,692.164062 
	C538.285767,691.079773 537.143066,690.215271 535.676086,690.702698 
	C534.031311,691.249207 534.370422,692.819946 534.255310,694.105286 
	C533.929199,697.746338 533.617676,701.388611 533.297668,705.030212 
	C532.746338,711.302856 535.778015,716.242554 539.217529,721.044861 
	C540.220764,722.445557 541.638916,722.652039 543.179688,722.703003 
	C550.862427,722.956604 558.442261,723.711792 565.731079,726.477417 
	C567.370300,727.099365 569.347656,726.947021 571.169861,726.951843 
	C588.168762,726.996826 605.169495,726.864014 622.166016,727.077087 
	C629.143066,727.164429 636.104248,728.170715 643.084656,728.413391 
	C666.304688,729.220520 687.539001,738.908081 709.976196,743.186768 
	C711.869385,743.547729 713.180054,744.830994 714.630127,745.963257 
	C721.846497,751.598145 729.115784,757.165405 736.683228,762.878235 
	C737.000000,766.692932 737.000000,770.385803 737.000000,774.539368 
M626.124756,575.488525 
	C624.331909,580.118469 621.366760,584.215271 620.370178,589.230713 
	C617.469849,603.826660 613.945801,618.196838 605.645630,630.945312 
	C604.181702,633.193909 601.904602,634.889465 600.980957,637.330688 
	C597.126343,647.518677 592.970642,657.480286 584.227173,664.568665 
	C592.187561,664.584473 596.865967,660.116943 599.566589,653.636963 
	C605.221069,640.069702 618.181274,632.951172 627.015869,622.189148 
	C629.838257,618.751099 631.886658,615.941284 631.784241,611.393677 
	C631.669373,606.291382 631.273132,600.851807 632.787781,596.133057 
	C635.394653,588.011658 635.148560,579.234741 638.964539,571.452271 
	C639.589539,570.177429 639.666565,568.539978 639.670837,567.069214 
	C639.714783,551.916382 639.691833,536.763367 639.686951,521.610413 
	C639.686218,519.470642 639.665833,517.338135 637.339294,516.062744 
	C635.618896,517.880371 636.264465,519.979614 636.312439,521.862366 
	C636.389954,524.906128 636.116028,527.887573 634.968872,530.671509 
	C631.492676,539.107483 631.129822,548.125244 630.458557,556.972107 
	C629.984497,563.218506 628.973145,569.111023 626.124756,575.488525 
M511.633850,664.644043 
	C516.487732,668.934326 519.013489,675.758606 524.737366,677.465637 
	C533.394470,675.052307 529.402405,667.322144 531.969238,662.036865 
	C535.970154,667.622437 534.679932,673.685364 536.123108,679.278931 
	C541.126892,676.907776 544.239197,673.620178 546.522949,668.791992 
	C548.770264,664.040894 547.078125,659.217712 548.378540,654.666016 
	C549.728516,649.941467 548.772278,645.482483 547.712585,640.961426 
	C547.217773,638.850342 546.231262,637.356689 543.693176,637.367920 
	C533.554321,637.412659 523.414856,637.326111 513.276245,637.389160 
	C509.620636,637.411926 508.302002,639.493530 507.866211,643.103882 
	C506.977417,650.467468 509.039490,657.210266 511.633850,664.644043 
M389.615417,618.962891 
	C391.027527,621.605042 392.377075,624.354431 394.905945,626.101868 
	C404.423065,632.678040 411.913940,641.434265 420.178650,649.359314 
	C421.403748,650.534058 422.485718,652.020691 425.696289,652.797546 
	C410.276031,626.623840 404.152924,598.187805 395.203674,570.735291 
	C394.810944,572.786987 395.375610,574.956299 394.717377,576.650452 
	C391.019501,586.168213 391.727997,596.619995 388.203674,606.162537 
	C386.676788,610.296753 385.883423,614.559814 389.615417,618.962891 
M509.795166,592.470398 
	C511.292511,593.919128 513.196228,593.604248 514.996826,593.616516 
	C521.987183,593.664246 529.027771,593.148621 535.955872,593.816345 
	C544.949707,594.683167 549.815796,588.715027 548.896057,580.231201 
	C548.505066,576.624390 547.366638,575.292419 543.752075,575.326416 
	C534.782593,575.410889 525.875366,576.522217 516.888794,576.547241 
	C510.329651,576.565491 509.041443,578.540527 508.988159,585.282837 
	C508.971161,587.431274 509.227051,589.581848 509.795166,592.470398 
M418.955963,397.365845 
	C417.696106,395.928711 416.941528,394.107422 414.401733,394.088959 
	C407.422668,394.038269 400.465240,394.070435 393.559479,395.221985 
	C392.177032,395.452515 390.853455,395.941071 390.801270,397.582336 
	C390.701691,400.712158 390.285522,403.936829 390.852051,406.962738 
	C392.394165,415.199005 395.125824,416.907776 403.507050,416.423950 
	C408.969940,416.108582 414.462097,416.276520 419.941132,416.278625 
	C421.465179,416.279205 423.358643,416.526062 423.506317,414.551819 
	C423.950653,408.610352 424.634460,402.516357 418.955963,397.365845 
M628.941956,475.154846 
	C629.048218,485.395538 633.660278,494.523071 635.889954,504.958649 
	C638.054321,498.748932 636.516968,493.171021 636.845032,487.697815 
	C637.802673,471.718658 634.050720,456.009338 634.616394,440.083557 
	C634.648315,439.186890 634.832642,437.975311 632.984436,437.730988 
	C631.943542,442.445160 628.075623,441.467072 624.807007,441.285675 
	C620.735229,441.059784 618.710449,442.541901 619.355408,446.705139 
	C620.502380,454.108887 619.746277,462.020538 625.569641,468.176849 
	C627.094788,469.789185 627.698914,472.272766 628.941956,475.154846 
M466.451721,598.983276 
	C465.374908,601.830627 465.411224,604.800049 465.274872,607.790894 
	C465.084412,611.968079 466.539062,613.531433 470.966644,613.758972 
	C481.033875,614.276367 490.731873,612.080017 500.541016,610.673523 
	C504.722260,610.073975 503.492035,606.533203 503.639435,603.907227 
	C503.780640,601.391724 503.307129,599.415100 499.999512,599.198486 
	C492.749542,598.723755 485.543243,597.995178 478.359222,596.607178 
	C474.666199,595.893738 470.137939,594.566223 466.451721,598.983276 
M493.885223,591.909790 
	C497.073639,594.095398 498.526489,590.411865 500.895721,589.782349 
	C505.311462,588.609070 503.021393,585.044983 503.308624,582.345947 
	C503.579254,579.803040 502.923553,578.012573 500.288422,577.534363 
	C490.864075,575.823975 481.451965,573.956848 471.788422,574.366638 
	C470.185852,574.434570 468.736206,574.739258 468.460999,576.630127 
	C468.033295,579.569092 467.594269,582.513489 467.359741,585.471436 
	C467.130035,588.369141 468.730682,589.942688 471.556549,589.722656 
	C478.913940,589.149597 485.915771,592.147766 493.885223,591.909790 
M437.264771,395.441650 
	C435.640747,395.137115 434.012085,394.786499 432.537781,395.838654 
	C432.074341,402.650452 432.764496,408.887482 434.514587,413.914124 
	C435.131531,415.686188 436.314392,416.600983 438.242950,416.593658 
	C442.230530,416.578491 446.223267,416.755859 450.204834,416.608978 
	C455.530853,416.412537 461.017487,408.374329 459.506805,403.274536 
	C459.132751,402.011658 458.335266,401.195557 457.193848,400.887634 
	C450.808807,399.165039 444.805023,396.040314 437.264771,395.441650 
M406.584045,452.232758 
	C408.037140,444.606781 413.630463,439.144745 418.315277,431.595154 
	C411.020416,433.354553 405.148193,432.083099 399.263855,432.324432 
	C397.581146,432.393433 396.038818,433.041962 396.565704,434.978882 
	C397.859772,439.736023 396.829346,444.580933 397.415741,449.343414 
	C398.777466,460.402710 399.227631,471.447540 396.808502,482.424744 
	C396.350983,484.500824 396.556763,486.304047 397.144745,488.407776 
	C403.130035,476.948242 402.468750,464.418396 406.584045,452.232758 
M555.467346,577.903503 
	C555.000000,581.698608 554.879333,585.498779 555.204285,589.315125 
	C555.352112,591.051270 555.591858,593.067993 557.683411,593.013855 
	C565.237610,592.818298 573.046814,595.673767 580.269348,590.816284 
	C582.405945,589.379395 584.111450,588.248047 583.664673,585.497131 
	C583.159912,582.389832 582.937927,578.572388 579.312317,577.784302 
	C571.578369,576.103210 563.697815,575.242798 555.467346,577.903503 
M519.546631,599.108459 
	C517.557129,599.122314 515.561890,599.237427 513.579346,599.126892 
	C510.397308,598.949463 509.021698,600.431763 509.052612,603.530212 
	C509.080719,606.342285 508.549072,609.003418 512.737122,609.809143 
	C520.827576,611.365906 528.931030,610.382629 537.018616,610.709839 
	C539.703430,610.818481 542.293762,610.365051 544.862183,609.689758 
	C549.437439,608.486816 548.168884,604.373352 548.452576,601.469849 
	C548.730896,598.622559 545.774597,599.172607 543.911560,599.155212 
	C536.119568,599.082458 528.326660,599.113831 519.546631,599.108459 
M606.365967,413.051147 
	C608.546997,418.688019 613.772339,422.850708 614.255005,429.304321 
	C614.384460,431.034698 614.678833,433.311462 616.749634,432.767395 
	C620.878052,431.682678 625.404053,434.083008 629.175171,431.156097 
	C629.496277,430.906799 629.373047,429.901520 629.248352,429.289795 
	C627.932678,422.834839 626.603088,416.382385 625.216736,409.942291 
	C624.519775,406.704590 622.717896,405.387817 619.445190,406.894501 
	C614.955139,408.961578 610.428650,409.209045 605.922363,406.668610 
	C604.816406,408.900726 606.003113,410.574402 606.365967,413.051147 
M555.056580,605.170593 
	C554.977417,607.130432 552.076111,608.936218 554.542175,610.994141 
	C556.872498,612.938843 559.396240,612.844116 561.817017,610.992004 
	C562.920105,610.148071 564.201416,609.692383 565.535461,609.847656 
	C570.855408,610.467102 575.518616,607.885925 580.513428,606.959290 
	C583.369080,606.429565 583.872253,604.892029 583.685425,602.417480 
	C583.483459,599.742065 581.807373,599.198303 579.602844,599.192444 
	C573.474731,599.176086 567.342407,599.289124 561.220032,599.093079 
	C557.342529,598.968994 555.206055,600.371887 555.056580,605.170593 
M397.727814,379.472717 
	C398.079651,379.120026 398.384857,378.697845 398.790558,378.425385 
	C402.743530,375.771301 404.235809,371.823334 402.327179,368.991669 
	C400.372131,366.091064 395.292419,365.198212 391.947296,367.614929 
	C388.876892,369.833191 386.060120,372.450531 383.368591,375.130096 
	C381.206970,377.282196 380.887848,379.513947 383.567596,381.932251 
	C388.598389,386.472229 391.200134,386.215271 397.727814,379.472717 
M442.426941,428.045593 
	C438.951569,428.152496 435.801971,430.030609 432.159546,429.638672 
	C430.029480,429.409485 428.577179,431.187927 427.821411,433.192505 
	C423.967743,443.414001 420.232544,453.681152 415.054779,463.346710 
	C414.208649,464.926239 413.766357,466.717651 415.270630,468.222565 
	C416.390839,468.021393 417.229584,467.595093 417.393677,466.749298 
	C418.471649,461.193420 421.742279,456.757050 424.660431,452.124329 
	C429.352753,444.675018 432.392700,435.874146 441.720093,432.309082 
	C442.993591,431.822327 443.927094,429.850159 444.501312,428.365814 
	C444.817535,427.548401 443.591705,427.943878 442.426941,428.045593 
M525.506897,631.708862 
	C530.651123,631.706787 535.795593,631.732300 540.939575,631.695312 
	C546.980164,631.651855 548.985657,629.327148 548.663269,622.836853 
	C548.353577,622.734497 548.008789,622.486084 547.739136,622.550659 
	C535.824585,625.409119 523.790588,627.349060 511.500244,627.417786 
	C510.307037,627.424500 508.996887,627.696716 508.917542,629.177490 
	C508.826538,630.877380 510.201355,631.459290 511.572021,631.505554 
	C515.882385,631.650757 520.197632,631.649841 525.506897,631.708862 
M457.627289,610.742432 
	C460.488770,606.509521 459.141205,601.647339 459.595245,597.064087 
	C459.699341,596.013123 458.487335,595.622375 457.470123,595.338074 
	C448.855042,592.930542 445.311340,595.517334 445.114471,604.400940 
	C445.093048,605.367371 444.719696,606.394348 445.591980,607.152405 
	C449.410217,608.330078 453.183258,609.493774 457.627289,610.742432 
M460.987091,585.687805 
	C461.438324,582.154724 461.889526,578.621643 462.335999,575.125732 
	C453.527740,572.953735 450.967957,575.047607 451.294159,583.918945 
	C451.365723,585.865784 450.995422,588.326355 453.701935,588.620300 
	C456.252625,588.897278 459.431641,590.270752 460.987091,585.687805 
M490.589020,618.538757 
	C498.823273,618.681396 498.823273,618.681396 500.378784,614.038696 
	C489.036957,616.543823 477.814667,616.072937 466.655334,616.350098 
	C466.675720,617.261169 466.696106,618.172302 466.716522,619.083374 
	C474.325684,620.944885 482.034760,620.328796 490.589020,618.538757 
M643.284119,419.817383 
	C641.819031,421.538635 640.112610,421.824554 638.624817,420.076508 
	C637.029724,418.202423 637.764648,416.406891 639.382935,414.807526 
	C640.752380,413.454102 642.809326,412.632690 643.052246,410.343170 
	C641.962341,408.247528 640.144714,407.096802 638.024658,406.485901 
	C635.925720,405.881073 634.120422,406.450714 634.328247,408.985657 
	C634.771545,414.391327 634.998718,419.946014 639.323303,424.228668 
	C642.305237,423.229095 643.882629,421.180664 645.260742,417.894348 
	C644.357727,418.727570 644.006836,419.051300 643.284119,419.817383 
M533.272888,615.059509 
	C526.551392,614.509216 519.756409,614.950256 513.101746,613.361816 
	C511.672882,613.020752 509.565277,612.809753 509.446808,615.402954 
	C509.341644,617.704224 510.479065,618.796631 512.765137,618.571228 
	C518.618958,617.994019 524.491821,617.528015 530.299438,616.640564 
	C531.338684,616.481750 533.626831,617.782532 533.272888,615.059509 
M451.177002,611.933899 
	C449.800568,611.459167 448.456238,610.760315 446.909149,611.263245 
	C449.485199,618.678040 452.975555,620.918091 459.454681,619.353882 
	C460.119385,613.488403 455.008209,613.831970 451.177002,611.933899 
M603.404114,387.693878 
	C603.131897,385.518250 601.623596,384.160004 600.010132,383.033661 
	C598.154236,381.738129 596.231628,382.109009 594.576477,383.591858 
	C593.342773,384.697144 591.919983,385.909332 592.656189,387.773315 
	C593.447632,389.776978 595.471191,389.945251 597.278015,389.952515 
	C599.364258,389.960907 601.637512,390.343048 603.404114,387.693878 
z"/>
<path fill="#000000" opacity="1.000000" stroke="none" 
	d="
M430.474060,330.071594 
	C432.435516,332.261627 434.470764,333.916351 436.985809,334.214783 
	C445.061737,335.173035 451.762329,339.452972 458.874695,342.782196 
	C463.429199,344.914124 469.215088,343.445312 472.402466,339.563660 
	C473.559021,338.155121 474.725281,336.751831 475.819580,335.295380 
	C478.888733,331.210449 483.071106,329.189941 488.571198,329.088409 
	C489.005493,330.446472 489.635681,332.417114 490.341522,334.624359 
	C484.167908,337.073151 482.627716,344.036560 477.437653,347.466492 
	C476.062103,348.375580 475.048584,349.897614 473.610291,350.631500 
	C471.444427,351.736664 470.352783,352.677429 471.002045,355.552795 
	C471.758911,358.904724 469.492889,360.409943 466.513977,358.871063 
	C462.319763,356.704285 457.780426,355.784851 453.387665,354.335632 
	C452.917511,354.180542 452.310455,354.244293 451.955017,353.966125 
	C441.541870,345.816406 428.130127,347.568390 416.503235,343.312744 
	C411.286865,341.403381 405.630341,340.634369 400.403473,338.415710 
	C396.272308,336.662262 391.713593,336.433777 387.284668,336.386810 
	C373.305237,336.238586 359.323273,336.313995 345.342316,336.332947 
	C342.163086,336.337250 338.892700,336.134186 338.872040,332.005341 
	C338.851105,327.814270 342.238129,327.523468 345.341583,327.705048 
	C355.964996,328.326569 366.259247,324.472626 376.944061,325.513092 
	C379.030334,325.716278 382.150848,324.916840 383.291718,323.428253 
	C386.887177,318.736877 391.068756,321.311584 394.566040,322.366272 
	C398.597687,323.582062 402.047760,324.594452 406.608978,324.429199 
	C412.024414,324.233032 418.543152,323.672791 423.608551,327.715179 
	C425.495300,329.220886 427.779602,329.693420 430.474060,330.071594 
z"/>
<path fill="#000000" opacity="1.000000" stroke="none" 
	d="
M263.888336,719.713501 
	C260.886047,723.291382 257.735077,726.208801 255.108170,729.700562 
	C250.497162,735.829651 243.704605,735.763611 236.931122,734.581177 
	C234.857697,734.219238 233.240021,732.786682 233.517319,730.363708 
	C233.806503,727.836975 235.829712,726.183350 237.943939,726.312622 
	C251.439026,727.137756 255.244476,716.149353 259.691986,707.413574 
	C264.104828,698.745911 269.033936,690.569458 276.790497,685.230591 
	C283.345917,680.718384 291.561798,678.631775 299.570282,677.131348 
	C301.868225,676.700806 303.092621,678.743286 303.670715,680.772034 
	C304.238098,682.763306 303.520630,684.174377 301.637238,685.314331 
	C297.863464,687.598633 293.440582,687.748840 289.437439,689.443420 
	C280.861938,693.073669 274.986633,699.113281 270.778442,707.154907 
	C268.621277,711.277161 266.318451,715.323242 263.888336,719.713501 
z"/>
<path fill="#000000" opacity="1.000000" stroke="none" 
	d="
M243.102615,770.705078 
	C249.882843,774.367798 258.350800,774.456055 263.140228,782.252686 
	C257.909668,783.546692 252.920761,783.848083 248.496078,782.438599 
	C243.280914,780.777283 237.463303,779.899780 233.412964,775.419678 
	C232.580276,774.498596 231.203781,773.940125 229.973007,773.527283 
	C214.218201,768.242493 198.010178,766.941895 181.503677,767.847839 
	C178.088272,768.035339 173.057831,768.829285 173.081985,763.468750 
	C173.106079,758.116394 178.187469,759.178467 181.576126,759.093628 
	C190.560852,758.868591 199.555008,759.046997 208.544769,758.979980 
	C211.603714,758.957214 214.363312,759.685425 217.211075,760.852356 
	C221.778275,762.723816 226.270630,764.960632 231.481308,764.915588 
	C234.190781,764.892151 236.550674,766.459167 238.513077,768.337158 
	C239.734634,769.506165 240.843323,770.742249 243.102615,770.705078 
z"/>
<path fill="#000000" opacity="1.000000" stroke="none" 
	d="
M479.146057,526.988159 
	C482.458710,529.323914 485.899139,528.653564 489.158966,528.550598 
	C492.587189,528.442200 495.028168,529.734558 494.912750,533.127136 
	C494.806244,536.256958 492.110931,537.123291 489.137268,537.345520 
	C480.622589,537.981873 472.679138,536.784363 467.162476,529.565735 
	C461.161926,521.713867 458.557831,512.460754 459.773987,502.775513 
	C460.219208,499.230011 463.792999,495.689667 468.381226,495.738831 
	C473.289093,495.791473 477.939301,495.246338 482.444855,493.177246 
	C483.710602,492.595978 485.403381,492.637451 486.846069,492.820587 
	C489.010101,493.095337 490.579346,494.515228 490.867462,496.681030 
	C491.166260,498.926910 489.866791,500.644867 487.725861,501.171692 
	C483.138794,502.300476 479.220551,505.441406 473.970612,504.788086 
	C469.786987,504.267517 466.813934,507.062958 468.480957,511.217743 
	C470.802216,517.003052 472.058746,523.834290 479.146057,526.988159 
z"/>
<path fill="#000000" opacity="1.000000" stroke="none" 
	d="
M483.123322,294.187195 
	C483.666779,292.945618 483.742310,291.762299 484.370087,291.112579 
	C495.475952,279.617920 491.705719,266.014404 490.166565,252.591766 
	C489.281097,244.870087 489.195740,237.073639 487.746918,229.381439 
	C486.704468,223.846893 486.431427,218.128174 483.965118,212.973221 
	C482.932709,210.815338 482.480103,209.043091 485.000366,208.106598 
	C487.345123,207.235291 488.777039,208.861298 489.561218,210.878830 
	C491.192963,215.077072 491.817627,219.521622 492.521820,223.939102 
	C494.069489,233.647751 495.791046,243.368164 496.898834,253.096268 
	C498.022095,262.960083 497.453674,273.061829 497.023987,283.033386 
	C496.867920,286.654877 493.858551,289.546997 491.581726,292.418243 
	C488.526428,296.271240 486.140198,300.341095 486.235138,305.501221 
	C486.287903,308.368164 485.069794,310.690277 481.861298,310.191498 
	C478.799133,309.715454 478.802490,307.256134 479.452362,304.704468 
	C480.343475,301.205750 480.134369,297.350128 483.123322,294.187195 
z"/>
<path fill="#000000" opacity="1.000000" stroke="none" 
	d="
M490.462708,361.965820 
	C489.270599,357.341949 492.297516,356.905548 495.221527,356.838135 
	C502.040497,356.680969 508.865112,356.787262 515.686768,356.720215 
	C517.670837,356.700745 519.697449,356.674316 521.627991,356.278107 
	C531.869080,354.176392 531.860657,354.135223 531.830811,343.946533 
	C531.815918,338.855225 531.815918,338.855225 534.648499,336.233887 
	C536.213379,340.694733 538.775574,344.738739 540.183777,349.465424 
	C540.716064,346.353088 541.248352,343.240753 541.909302,339.376343 
	C545.743652,341.966431 546.085999,345.183044 544.588928,348.119202 
	C543.547852,350.160980 542.656067,352.308105 541.510925,354.307312 
	C540.456482,356.148285 539.658569,358.414062 536.684021,357.278503 
	C536.182007,357.086823 535.233521,357.264038 534.866577,357.638519 
	C529.097168,363.526733 521.629944,362.856293 514.383240,363.022766 
	C512.054749,363.076263 509.712891,363.177521 507.396729,363.000427 
	C503.620758,362.711700 500.746490,363.860443 498.286987,366.925751 
	C494.404175,371.764954 489.200226,373.937805 482.893494,373.312927 
	C480.767700,373.102325 478.574585,372.848969 478.571686,370.262268 
	C478.568359,367.260193 481.060150,367.085388 483.288971,367.245941 
	C485.311462,367.391571 487.277252,367.513977 489.140167,366.566406 
	C490.990906,365.625000 492.199127,364.429321 490.462708,361.965820 
z"/>
<path fill="#000000" opacity="1.000000" stroke="none" 
	d="
M452.327698,314.629028 
	C448.667664,313.152435 447.863800,309.471497 445.324402,307.218201 
	C439.838501,309.677032 437.454773,304.667206 435.390106,301.870850 
	C431.137390,296.111145 429.926605,288.492340 425.077271,282.853058 
	C424.269928,281.914246 424.258453,280.161316 425.305328,279.130371 
	C426.753265,277.704468 427.949493,279.080414 429.257935,279.766357 
	C433.373688,281.924042 434.273590,286.612793 437.329498,289.719513 
	C444.818573,297.333160 453.344788,303.503754 462.046509,309.535492 
	C464.628418,311.325165 467.043488,313.369415 469.441193,315.407379 
	C472.357239,317.885925 475.575317,319.195801 479.477509,318.876648 
	C481.302460,318.727417 483.635834,318.873260 483.444702,321.409943 
	C483.287659,323.494781 481.224640,323.969116 479.275360,324.213928 
	C473.696808,324.914398 468.823700,323.524689 464.459930,319.922882 
	C462.661041,318.438110 461.325867,315.814148 457.836243,318.439056 
	C455.787323,319.980286 454.591705,315.859039 452.327698,314.629028 
z"/>
<path fill="#000000" opacity="1.000000" stroke="none" 
	d="
M550.227173,259.461060 
	C552.399536,254.000000 554.670532,249.028290 557.350098,244.231476 
	C558.185913,242.735199 559.093384,241.453262 560.456726,240.435425 
	C561.958252,239.314423 563.429871,238.952698 564.955933,240.314026 
	C566.652588,241.827530 565.861328,243.160843 564.749817,244.629669 
	C558.273804,253.187378 554.969971,263.091095 553.434143,273.511658 
	C551.596436,285.979858 550.200439,298.555145 550.764587,311.174011 
	C550.915222,314.543793 553.126404,317.833740 554.457703,321.133636 
	C555.206482,322.989746 556.518982,325.065063 554.123779,326.401825 
	C551.584717,327.818909 549.940918,325.716553 548.972961,323.859406 
	C546.431824,318.983795 545.241577,313.868134 545.066101,308.183716 
	C544.612183,293.481659 546.397827,279.050079 548.795776,264.637207 
	C549.067078,263.006592 549.636597,261.425598 550.227173,259.461060 
z"/>
<path fill="#000000" opacity="1.000000" stroke="none" 
	d="
M543.819214,768.904053 
	C537.740540,771.300598 533.062256,774.675598 530.012695,780.280090 
	C528.191284,783.627563 522.847595,784.072327 517.257141,781.778992 
	C517.569885,777.990845 520.901184,775.896912 522.913818,773.419739 
	C527.087585,768.282593 531.505676,763.196960 538.261414,760.690918 
	C543.496521,758.748901 548.498596,756.114990 553.908325,754.558960 
	C555.325867,754.151123 556.799011,753.821594 558.264771,753.721375 
	C560.901611,753.541077 563.520325,753.884094 563.957642,757.147034 
	C564.358826,760.140869 562.517334,761.511658 559.758667,762.355591 
	C554.376648,764.002197 549.061218,765.890503 543.819214,768.904053 
z"/>
<path fill="#000000" opacity="1.000000" stroke="none" 
	d="
M304.299316,604.330872 
	C304.213776,611.752869 304.442230,618.665710 301.280396,625.270630 
	C300.146301,627.639648 298.432495,629.280518 296.948608,631.216797 
	C295.760406,632.767212 294.297913,634.880432 292.112030,633.066956 
	C290.097168,631.395386 290.810242,629.194946 292.279327,627.282288 
	C294.905457,623.863159 297.620300,620.456482 297.885254,615.898865 
	C298.831940,599.612793 302.437103,583.237671 296.316467,567.174377 
	C295.963196,566.247253 295.853760,565.226807 295.495667,564.302124 
	C294.694397,562.233215 295.038422,560.634827 297.338684,560.030701 
	C299.482819,559.467590 300.496002,560.471130 301.324219,562.592041 
	C306.585754,576.066162 305.688110,589.935730 304.299316,604.330872 
z"/>
<path fill="#000000" opacity="1.000000" stroke="none" 
	d="
M361.595886,421.671082 
	C362.088104,422.060303 362.295715,422.312134 362.687744,422.723114 
	C362.651306,429.345581 357.449188,433.287659 354.881256,438.563751 
	C350.397064,447.777008 345.462158,456.671875 345.180267,467.352020 
	C345.041779,472.599854 343.201233,477.778870 344.941589,483.111328 
	C345.237885,484.019257 344.538086,485.376190 344.030548,486.391754 
	C343.368683,487.716003 342.514404,489.202393 340.712524,488.878357 
	C338.856598,488.544556 338.684082,486.926575 338.682068,485.370789 
	C338.675812,480.551117 338.455017,475.718262 338.731537,470.914337 
	C339.483032,457.858673 342.802429,445.665131 349.914825,434.400452 
	C352.200195,430.780853 354.884491,427.429321 357.021942,423.717926 
	C357.932251,422.137329 358.923462,420.394165 361.595886,421.671082 
z"/>
<path fill="#000000" opacity="1.000000" stroke="none" 
	d="
M489.319763,350.690582 
	C490.409332,346.224854 494.125946,343.422546 495.179016,339.069641 
	C495.538788,337.582428 496.638916,336.194305 497.108490,334.569733 
	C498.653015,329.226166 498.744080,329.225220 504.154236,328.410828 
	C504.001190,325.026733 503.810608,321.606354 503.706085,318.183319 
	C503.650177,316.351166 504.223755,314.722412 506.385437,314.760803 
	C508.329041,314.795319 508.503510,316.318695 508.658020,317.959473 
	C508.904388,320.575317 509.063263,323.319153 509.996185,325.722778 
	C511.423615,329.400482 511.082184,332.152374 508.332214,335.206146 
	C506.090820,337.695160 507.360596,341.187531 507.618958,345.700592 
	C509.523743,341.556946 512.971008,342.576813 515.235168,341.002930 
	C515.866699,339.185394 513.079407,337.224457 515.834778,335.367554 
	C517.532471,336.947144 518.426086,340.561127 522.430969,337.787292 
	C521.878174,341.418732 519.671021,344.015930 521.571899,346.894379 
	C518.952454,347.888367 517.919861,346.105743 516.537292,344.987396 
	C515.787903,348.231598 513.930054,351.973969 510.810089,351.149811 
	C507.832825,350.363342 504.399597,347.625488 504.532196,343.200806 
	C504.596497,341.055634 504.543304,338.906952 504.232086,336.643005 
	C502.544525,339.914398 500.209229,342.705383 498.989777,346.269867 
	C497.367950,351.010590 493.571625,352.688568 489.319763,350.690582 
z"/>
<path fill="#000000" opacity="1.000000" stroke="none" 
	d="
M581.159424,325.566589 
	C578.277344,322.374481 580.135498,320.779785 582.879822,320.932739 
	C602.831421,322.044983 612.479919,306.275635 625.072327,295.387543 
	C626.579224,294.084595 627.511475,291.762054 629.791138,293.459900 
	C631.918579,295.044373 631.594849,297.315216 629.949402,299.146393 
	C626.159180,303.364532 622.256958,307.482819 618.364319,311.607819 
	C617.341797,312.691437 615.940674,313.486084 615.133484,314.694153 
	C606.793274,327.176239 594.221741,326.655243 581.159424,325.566589 
z"/>
<path fill="#000000" opacity="1.000000" stroke="none" 
	d="
M678.166687,453.185852 
	C680.367676,460.714844 679.242249,468.089355 679.624939,475.368073 
	C679.755798,477.856781 677.962585,479.274231 676.014099,480.331573 
	C674.805786,480.987305 673.724670,480.335938 672.988464,479.317444 
	C671.642822,477.455536 672.906982,476.006531 673.656616,474.304443 
	C676.246948,468.422668 673.659363,462.677826 673.028564,456.838959 
	C672.409546,451.109222 672.514954,445.290405 672.517700,439.510803 
	C672.518494,437.762665 672.827942,435.422485 675.373657,435.646698 
	C677.762085,435.857117 677.770142,438.134705 677.857361,439.928253 
	C678.066223,444.224304 676.999512,448.541382 678.166687,453.185852 
z"/>
<path fill="#000000" opacity="1.000000" stroke="none" 
	d="
M465.718018,705.541016 
	C468.213226,715.265137 472.487152,722.766052 483.121216,724.547302 
	C484.985809,724.859619 486.390198,726.366394 485.684052,728.629211 
	C484.975037,730.901245 483.561981,730.754883 481.389771,730.291748 
	C469.083832,727.668457 463.184082,719.060547 459.805786,707.931519 
	C459.470306,706.826355 459.410065,705.569092 458.831421,704.620789 
	C457.672089,702.720764 456.886383,700.614807 459.088593,699.407593 
	C461.426758,698.125793 463.092621,700.119263 464.300507,701.955627 
	C464.920929,702.898926 465.151947,704.098389 465.718018,705.541016 
z"/>
<path fill="#000000" opacity="1.000000" stroke="none" 
	d="
M427.931946,622.998535 
	C426.125397,620.402283 424.604645,618.040100 422.938812,615.785156 
	C421.876617,614.347290 421.703064,613.172852 423.190979,611.943909 
	C424.555054,610.817261 425.881805,610.691467 427.154053,611.964844 
	C429.263306,614.075928 431.275269,616.287720 432.638062,618.973511 
	C433.392944,620.461182 435.507202,621.948425 433.511963,623.726379 
	C431.798431,625.253296 429.828033,624.836121 427.931946,622.998535 
z"/>
<path fill="#000000" opacity="1.000000" stroke="none" 
	d="
M532.446472,322.406677 
	C534.301453,324.223663 535.150696,326.201477 535.661804,328.318726 
	C536.142578,330.310455 535.028564,331.541962 533.308533,332.100250 
	C531.668701,332.632538 530.483521,331.821320 529.658813,330.313477 
	C527.410889,326.203583 528.369507,322.979950 532.446472,322.406677 
z"/>
<path fill="#000000" opacity="1.000000" stroke="none" 
	d="
M636.603516,371.311523 
	C633.717651,371.001251 630.922668,372.203369 628.743225,369.856720 
	C632.861267,366.745972 638.554321,367.237061 642.468567,371.001129 
	C640.748596,373.220856 638.768188,370.909027 636.603516,371.311523 
z"/>
<path fill="#000000" opacity="1.000000" stroke="none" 
	d="
M475.471375,635.835876 
	C472.005951,635.875610 468.882111,636.559753 466.022552,633.895874 
	C471.879028,633.895874 477.735504,633.895874 483.751282,633.895874 
	C481.856506,637.120300 478.367889,634.704834 475.471375,635.835876 
z"/>
<path fill="#000000" opacity="1.000000" stroke="none" 
	d="
M666.829529,403.123779 
	C664.621338,401.823761 662.579285,400.567535 660.085266,399.678772 
	C657.623352,398.801514 654.576477,397.287170 655.272705,392.683624 
	C658.344055,395.768921 661.541260,397.565277 665.058167,398.878448 
	C666.715881,399.497467 667.697693,400.873260 666.829529,403.123779 
z"/>
<path fill="#000000" opacity="1.000000" stroke="none" 
	d="
M574.499695,626.593384 
	C577.840820,627.196228 580.788574,627.751465 584.182983,628.390808 
	C580.277405,631.476746 573.723694,630.523438 570.659241,626.936096 
	C571.625000,625.193237 572.938232,626.468018 574.499695,626.593384 
z"/>
<path fill="#000000" opacity="1.000000" stroke="none" 
	d="
M549.963989,367.782593 
	C551.644165,365.977661 552.624023,366.986786 552.882202,368.418060 
	C553.303162,370.752106 553.839844,373.174927 552.803467,376.022644 
	C549.616516,373.889893 549.901917,370.949188 549.963989,367.782593 
z"/>
<path fill="#000000" opacity="1.000000" stroke="none" 
	d="
M366.085297,358.869446 
	C365.313721,359.384064 364.762817,359.637329 364.059937,360.004822 
	C362.505005,359.559082 361.310120,358.720764 362.844635,357.287140 
	C364.549377,355.694550 365.908112,352.796509 369.194275,354.435638 
	C369.087097,356.730377 367.084198,357.220612 366.085297,358.869446 
z"/>
<path fill="#000000" opacity="1.000000" stroke="none" 
	d="
M350.623230,374.801422 
	C353.172333,373.226135 355.623260,373.344421 359.299377,374.864929 
	C355.739014,377.418274 353.201202,376.990021 350.623230,374.801422 
z"/>
</svg>